<svg viewBox="0 0 63 63" fill="none" xmlns="http://www.w3.org/2000/svg">
<path d="M31 18C34.3137 18 37 15.3137 37 12C37 8.68629 34.3137 6 31 6C27.6863 6 25 8.68629 25 12C25 15.3137 27.6863 18 31 18Z" fill="currentColor"/>
<path d="M31 38C34.3137 38 37 35.3137 37 32C37 28.6863 34.3137 26 31 26C27.6863 26 25 28.6863 25 32C25 35.3137 27.6863 38 31 38Z" fill="currentColor"/>
<path d="M31 58C34.3137 58 37 55.3137 37 52C37 48.6863 34.3137 46 31 46C27.6863 46 25 48.6863 25 52C25 55.3137 27.6863 58 31 58Z" fill="currentColor"/>
</svg>
