<svg viewBox="0 0 55 54" fill="none" xmlns="http://www.w3.org/2000/svg">
<path d="M33.4693 0.12067C33.7198 0.120222 33.9679 0.169152 34.1995 0.264661C34.4311 0.360171 34.6416 0.500388 34.8189 0.677294L53.6908 19.5492C54.0481 19.9066 54.2489 20.3914 54.2489 20.8969C54.2489 21.4024 54.0481 21.8871 53.6908 22.2446C51.8608 24.0746 49.6038 24.4864 47.9606 24.4864C47.2858 24.4864 46.6834 24.4177 46.2068 24.3377L34.2585 36.286C34.573 37.5534 34.7771 38.8455 34.8685 40.1481C35.0438 42.8245 34.7465 46.5798 32.1235 49.2028C31.766 49.5602 31.2812 49.7609 30.7758 49.7609C30.2703 49.7609 29.7855 49.5602 29.428 49.2028L18.6425 38.421L6.51109 50.5524C5.76766 51.2959 1.86366 53.9913 1.12022 53.2479C0.376782 52.5044 3.07222 48.5966 3.81566 47.857L15.947 35.7256L5.16528 24.94C4.80792 24.5826 4.60716 24.0978 4.60716 23.5923C4.60716 23.0869 4.80792 22.6021 5.16528 22.2446C7.78828 19.6216 11.5436 19.3204 14.22 19.4996C15.5225 19.5909 16.8147 19.795 18.082 20.1096L30.0304 8.16504C29.9307 7.58447 29.8797 6.99656 29.8779 6.40748C29.8779 4.76811 30.2897 2.51111 32.1235 0.677294C32.4807 0.320944 32.9647 0.120777 33.4693 0.12067Z" fill="currentColor"/>
</svg>
