<svg viewBox="0 0 62 63" fill="none" xmlns="http://www.w3.org/2000/svg">
<path d="M31 59.4058C32.0848 59.3808 33.1259 58.973 33.9391 58.2544C34.7523 57.5358 35.2851 56.5527 35.4433 55.4792H26.3844C26.5471 56.5819 27.1048 57.588 27.9539 58.3103C28.8029 59.0326 29.8854 59.4219 31 59.4058Z" fill="currentColor"/>
<path d="M56.575 48.8142L55.9895 48.2975C54.3283 46.8174 52.8742 45.1201 51.6667 43.2514C50.3479 40.6724 49.5574 37.856 49.3417 34.9675V26.4597C49.3347 25.4263 49.2425 24.3952 49.0661 23.3769C46.1489 22.7773 43.5285 21.188 41.6485 18.8781C39.7686 16.5682 38.7446 13.6796 38.75 10.7014V9.61638C36.9519 8.73148 35.02 8.14958 33.0323 7.89415V5.72415C33.0323 5.11438 32.79 4.52958 32.3588 4.0984C31.9277 3.66722 31.3429 3.42499 30.7331 3.42499C30.1233 3.42499 29.5385 3.66722 29.1073 4.0984C28.6762 4.52958 28.4339 5.11438 28.4339 5.72415V7.98027C23.9832 8.60811 19.9099 10.8249 16.966 14.2215C14.0221 17.618 12.4065 21.9649 12.4173 26.4597V34.9675C12.2016 37.856 11.4111 40.6724 10.0923 43.2514C8.90544 45.1154 7.47481 46.8125 5.83836 48.2975L5.25281 48.8142V53.6708H56.575V48.8142Z" fill="currentColor"/>
<path d="M51.6667 19.3125C56.4224 19.3125 60.2778 15.4572 60.2778 10.7014C60.2778 5.9456 56.4224 2.09027 51.6667 2.09027C46.9109 2.09027 43.0555 5.9456 43.0555 10.7014C43.0555 15.4572 46.9109 19.3125 51.6667 19.3125Z" fill="currentColor"/>
</svg>
