<svg viewBox="0 0 93 93" fill="none" xmlns="http://www.w3.org/2000/svg">
<path d="M39.3158 12.586C39.8948 11.155 40.8879 9.92952 42.1679 9.06662C43.4479 8.20372 44.9564 7.74273 46.5001 7.74273C48.0438 7.74273 49.5523 8.20372 50.8323 9.06662C52.1122 9.92952 53.1054 11.155 53.6843 12.586C59.4145 14.1619 64.4689 17.5753 68.0713 22.3019C71.6737 27.0286 73.6248 32.8071 73.6251 38.75V56.9509L80.7241 67.5994C81.1135 68.1829 81.3371 68.8613 81.3711 69.562C81.4052 70.2627 81.2483 70.9595 80.9174 71.5781C80.5864 72.1967 80.0937 72.7138 79.4919 73.0743C78.89 73.4348 78.2016 73.6251 77.5001 73.625H59.927C59.4604 76.8533 57.8463 79.8054 55.3804 81.9405C52.9145 84.0757 49.7619 85.2509 46.5001 85.2509C43.2383 85.2509 40.0856 84.0757 37.6197 81.9405C35.1539 79.8054 33.5398 76.8533 33.0732 73.625H15.5001C14.7986 73.6251 14.1101 73.4348 13.5083 73.0743C12.9065 72.7138 12.4138 72.1967 12.0828 71.5781C11.7519 70.9595 11.595 70.2627 11.6291 69.562C11.6631 68.8613 11.8867 68.1829 12.2761 67.5994L19.3751 56.9509V38.75C19.3751 26.257 27.8226 15.7325 39.3158 12.586ZM41.0208 73.625C41.421 74.759 42.1631 75.741 43.1448 76.4356C44.1265 77.1301 45.2995 77.5031 46.502 77.5031C47.7046 77.5031 48.8776 77.1301 49.8592 76.4356C50.8409 75.741 51.583 74.759 51.9832 73.625H41.017H41.0208ZM46.5001 19.375C41.3615 19.375 36.4334 21.4163 32.7999 25.0498C29.1664 28.6833 27.1251 33.6114 27.1251 38.75V58.125C27.1253 58.8904 26.8987 59.6388 26.4741 60.2756L22.7425 65.875H70.2538L66.5222 60.2756C66.0989 59.6383 65.8738 58.89 65.8751 58.125V38.75C65.8751 33.6114 63.8338 28.6833 60.2003 25.0498C56.5668 21.4163 51.6387 19.375 46.5001 19.375Z" fill="currentColor"/>
</svg>
