<svg width="240" height="48" viewBox="0 0 240 48" fill="none" xmlns="http://www.w3.org/2000/svg">
<path d="M17.8717 48C14.4503 48 11.3711 47.2956 8.63396 45.8868C5.93711 44.4377 3.8239 42.4453 2.29434 39.9094C0.76478 37.3736 0 34.4956 0 31.2755C0 28.0553 0.76478 25.1774 2.29434 22.6415C3.8239 20.1057 5.93711 18.1333 8.63396 16.7245C11.3711 15.2755 14.4503 14.5509 17.8717 14.5509C21.2931 14.5509 24.3522 15.2755 27.0491 16.7245C29.7459 18.1333 31.8591 20.1057 33.3887 22.6415C34.9182 25.1774 35.683 28.0553 35.683 31.2755C35.683 34.4956 34.9182 37.3736 33.3887 39.9094C31.8591 42.4453 29.7459 44.4377 27.0491 45.8868C24.3522 47.2956 21.2931 48 17.8717 48ZM17.8717 40.2717C20.2868 40.2717 22.2591 39.4667 23.7887 37.8566C25.3585 36.2063 26.1434 34.0126 26.1434 31.2755C26.1434 28.5384 25.3585 26.3648 23.7887 24.7547C22.2591 23.1044 20.2868 22.2792 17.8717 22.2792C15.4566 22.2792 13.4642 23.1044 11.8943 24.7547C10.3245 26.3648 9.53962 28.5384 9.53962 31.2755C9.53962 34.0126 10.3245 36.2063 11.8943 37.8566C13.4642 39.4667 15.4566 40.2717 17.8717 40.2717Z" fill="currentColor"/>
<path d="M61.7222 14.5509C65.7473 14.5509 68.9876 15.7585 71.4429 18.1736C73.9385 20.5887 75.1863 24.1711 75.1863 28.9208V47.517H65.7674V30.3698C65.7674 27.7937 65.2039 25.8818 64.0769 24.634C62.9498 23.3459 61.3197 22.7019 59.1863 22.7019C56.8115 22.7019 54.9197 23.4465 53.5108 24.9359C52.102 26.3849 51.3976 28.5585 51.3976 31.4566V47.517H41.9788V15.034H50.975V18.8377C52.2228 17.4692 53.7725 16.4226 55.6241 15.6981C57.4756 14.9333 59.5083 14.5509 61.7222 14.5509Z" fill="currentColor"/>
<path d="M87.2863 48C85.636 48 84.2473 47.4365 83.1203 46.3094C81.9932 45.1824 81.4297 43.7736 81.4297 42.083C81.4297 40.3522 81.9932 38.9635 83.1203 37.917C84.2473 36.8302 85.636 36.2868 87.2863 36.2868C88.9366 36.2868 90.3253 36.8302 91.4523 37.917C92.5794 38.9635 93.1429 40.3522 93.1429 42.083C93.1429 43.7736 92.5794 45.1824 91.4523 46.3094C90.3253 47.4365 88.9366 48 87.2863 48Z" fill="currentColor"/>
<path d="M120.241 45.9472C119.315 46.6314 118.168 47.1547 116.8 47.517C115.471 47.839 114.062 48 112.573 48C108.709 48 105.71 47.0138 103.577 45.0415C101.484 43.0692 100.437 40.1711 100.437 36.3472V23.0038H95.4259V15.7585H100.437V7.84906H109.856V15.7585H117.947V23.0038H109.856V36.2264C109.856 37.595 110.198 38.6616 110.883 39.4264C111.607 40.1509 112.613 40.5132 113.901 40.5132C115.391 40.5132 116.659 40.1107 117.705 39.3057L120.241 45.9472Z" fill="currentColor"/>
<path d="M125.528 15.034H134.947V47.517H125.528V15.034ZM130.238 10.5057C128.507 10.5057 127.098 10.0025 126.011 8.99623C124.925 7.98994 124.381 6.74214 124.381 5.25283C124.381 3.76352 124.925 2.51572 126.011 1.50944C127.098 0.503145 128.507 0 130.238 0C131.969 0 133.377 0.48302 134.464 1.44906C135.551 2.4151 136.094 3.62264 136.094 5.0717C136.094 6.64151 135.551 7.94969 134.464 8.99623C133.377 10.0025 131.969 10.5057 130.238 10.5057Z" fill="currentColor"/>
<path d="M185.289 14.5509C189.354 14.5509 192.574 15.7585 194.949 18.1736C197.364 20.5484 198.572 24.1308 198.572 28.9208V47.517H189.153V30.3698C189.153 27.7937 188.609 25.8818 187.523 24.634C186.476 23.3459 184.967 22.7019 182.994 22.7019C180.78 22.7019 179.03 23.4264 177.742 24.8755C176.453 26.2843 175.809 28.3975 175.809 31.2151V47.517H166.391V30.3698C166.391 25.2579 164.338 22.7019 160.232 22.7019C158.058 22.7019 156.328 23.4264 155.04 24.8755C153.752 26.2843 153.108 28.3975 153.108 31.2151V47.517H143.689V15.034H152.685V18.7774C153.892 17.4088 155.362 16.3623 157.092 15.6377C158.864 14.9132 160.796 14.5509 162.889 14.5509C165.183 14.5509 167.256 15.0138 169.108 15.9396C170.959 16.8252 172.448 18.1333 173.575 19.8642C174.904 18.1736 176.574 16.8654 178.587 15.9396C180.64 15.0138 182.874 14.5509 185.289 14.5509Z" fill="currentColor"/>
<path d="M239.187 31.3962C239.187 31.517 239.126 32.3623 239.006 33.9321H214.432C214.875 35.9447 215.921 37.5346 217.572 38.7019C219.222 39.8692 221.275 40.4528 223.73 40.4528C225.421 40.4528 226.91 40.2113 228.198 39.7283C229.526 39.205 230.754 38.4 231.881 37.3132L236.892 42.7472C233.833 46.2491 229.365 48 223.489 48C219.826 48 216.586 47.2956 213.768 45.8868C210.95 44.4377 208.777 42.4453 207.247 39.9094C205.718 37.3736 204.953 34.4956 204.953 31.2755C204.953 28.0956 205.697 25.2377 207.187 22.7019C208.716 20.1258 210.789 18.1333 213.406 16.7245C216.062 15.2755 219.021 14.5509 222.281 14.5509C225.461 14.5509 228.339 15.2352 230.915 16.6038C233.491 17.9723 235.504 19.9447 236.953 22.5208C238.442 25.0566 239.187 28.0151 239.187 31.3962ZM222.341 21.6755C220.208 21.6755 218.417 22.2792 216.968 23.4868C215.519 24.6943 214.633 26.3447 214.311 28.4377H230.311C229.989 26.3849 229.104 24.7547 227.655 23.5472C226.206 22.2994 224.435 21.6755 222.341 21.6755Z" fill="currentColor"/>
</svg>
