<svg viewBox="0 0 56 57" fill="none" xmlns="http://www.w3.org/2000/svg">
<path d="M48.3233 45.378L40.39 37.468C42.9496 34.2071 44.3385 30.1802 44.3333 26.0347C44.3333 22.3428 43.2386 18.7338 41.1874 15.6641C39.1363 12.5944 36.221 10.2018 32.8101 8.78896C29.3992 7.37613 25.646 7.00646 22.025 7.72672C18.404 8.44698 15.0779 10.2248 12.4673 12.8354C9.85677 15.446 8.07894 18.772 7.35868 22.393C6.63843 26.014 7.00809 29.7672 8.42092 33.1781C9.83376 36.589 12.2263 39.5044 15.296 41.5555C18.3657 43.6066 21.9748 44.7014 25.6667 44.7014C29.8122 44.7065 33.8391 43.3177 37.1 40.758L45.01 48.6914C45.2269 48.9101 45.485 49.0837 45.7693 49.2021C46.0537 49.3206 46.3586 49.3816 46.6667 49.3816C46.9747 49.3816 47.2797 49.3206 47.564 49.2021C47.8484 49.0837 48.1064 48.9101 48.3233 48.6914C48.542 48.4745 48.7156 48.2164 48.8341 47.9321C48.9525 47.6477 49.0135 47.3427 49.0135 47.0347C49.0135 46.7267 48.9525 46.4217 48.8341 46.1374C48.7156 45.853 48.542 45.595 48.3233 45.378ZM11.6667 26.0347C11.6667 23.2658 12.4878 20.559 14.0261 18.2567C15.5644 15.9544 17.7509 14.16 20.3091 13.1004C22.8673 12.0408 25.6822 11.7635 28.3979 12.3037C31.1137 12.8439 33.6082 14.1773 35.5662 16.1352C37.5241 18.0932 38.8575 20.5877 39.3977 23.3034C39.9379 26.0192 39.6606 28.8341 38.601 31.3923C37.5414 33.9504 35.7469 36.1369 33.4447 37.6753C31.1424 39.2136 28.4356 40.0347 25.6667 40.0347C21.9536 40.0347 18.3927 38.5597 15.7672 35.9342C13.1417 33.3087 11.6667 29.7477 11.6667 26.0347Z" fill="currentColor"/>
</svg>
